<?xml version="1.0" standalone="no"?>
<!DOCTYPE svg PUBLIC "-//W3C//DTD SVG 20010904//EN"
 "http://www.w3.org/TR/2001/REC-SVG-20010904/DTD/svg10.dtd">
<svg version="1.0" xmlns="http://www.w3.org/2000/svg"
 width="30.000000pt" height="78.000000pt" viewBox="0 0 30.000000 78.000000"
 preserveAspectRatio="xMidYMid meet">
<metadata>
Created by potrace 1.11, written by Peter Selinger 2001-2013
</metadata>
<g transform="translate(0.000000,78.000000) scale(0.100000,-0.100000)"
fill="#000000" stroke="none">
<path d="M151 744 c-22 -29 -28 -88 -11 -114 9 -13 14 -10 35 15 30 36 39 66
31 100 -8 32 -29 32 -55 -1z"/>
<path d="M51 673 c-14 -50 -6 -89 22 -120 27 -30 34 -29 42 8 10 43 -1 89 -29
124 l-24 30 -11 -42z"/>
<path d="M209 617 c-32 -22 -59 -70 -47 -83 12 -11 75 27 87 52 13 30 14 54 2
54 -4 0 -23 -10 -42 -23z"/>
<path d="M145 601 c-11 -19 -16 -54 -22 -149 -7 -110 12 -203 61 -301 32 -65
94 -146 104 -136 3 3 -4 15 -15 28 -25 28 -73 99 -73 109 0 4 16 14 35 23 39
16 72 74 58 100 -7 12 -13 12 -40 -1 -33 -16 -59 -64 -55 -99 4 -33 -13 1 -38
75 -27 79 -33 203 -15 292 13 62 13 80 0 59z"/>
<path d="M190 493 c-17 -16 -33 -43 -36 -61 -6 -31 -5 -33 16 -30 25 3 74 59
85 96 9 32 -27 29 -65 -5z"/>
<path d="M5 478 c4 -18 20 -45 36 -60 49 -47 79 -33 59 26 -12 37 -47 66 -80
66 -19 0 -21 -4 -15 -32z"/>
<path d="M245 410 c-44 -18 -97 -102 -77 -122 13 -13 59 8 76 34 12 19 32 99
23 97 -1 0 -11 -4 -22 -9z"/>
<path d="M0 350 c0 -23 31 -69 49 -75 63 -20 78 -12 60 28 -18 40 -109 79
-109 47z"/>
<path d="M40 217 c0 -23 48 -64 81 -69 35 -5 44 4 29 32 -19 36 -110 67 -110
37z"/>
</g>
</svg>
